<svg width="128" height="128" viewBox="0 0 128 128" fill="none" xmlns="http://www.w3.org/2000/svg">
<rect width="128" height="128" rx="32" fill="url(#paint0_linear_2190_7)"/>
<path d="M27.3628 51.0083C24.9182 51.0083 22.6601 49.7043 21.4389 47.5871L17.8461 41.3653C16.6239 39.2471 16.6239 36.64 17.8461 34.524L21.4391 28.3009C22.6601 26.1839 24.9182 24.8799 27.3628 24.8799H34.5488C36.9933 24.8799 39.2514 26.1839 40.4736 28.3011L44.0666 34.5242C45.2877 36.6402 45.2877 39.2472 44.0666 41.3655L40.4736 47.5873C39.2514 49.7044 36.9933 51.0085 34.5488 51.0085L27.3628 51.0083Z" fill="#231815"/>
<path d="M94.3817 51.0083C91.9372 51.0083 89.6779 49.7043 88.4556 47.5871L84.8626 41.3653C83.6415 39.2471 83.6415 36.64 84.8626 34.524L88.4556 28.3009C89.6779 26.1839 91.9372 24.8799 94.3817 24.8799H101.567C104.011 24.8799 106.269 26.1839 107.49 28.3011L111.083 34.5242C112.306 36.6402 112.306 39.2472 111.083 41.3655L107.49 47.5873C106.269 49.7044 104.011 51.0085 101.567 51.0085L94.3817 51.0083Z" fill="#231815"/>
<path d="M41.1728 36.159L41.1728 36.159C42.7457 33.7971 45.3959 32.3805 48.2349 32.3805H62.4647H64.0441V101.971H62.4647H44.9797C43.3686 101.971 41.79 101.512 40.4303 100.648L40.351 100.772L40.4303 100.648L28.2733 92.9227L28.1928 93.0493L28.2733 92.9227C25.8221 91.3652 24.3373 88.6635 24.3373 85.7587V63.9827C24.3373 62.3057 24.8332 60.6689 25.7628 59.2745L25.6388 59.1919L25.7628 59.2745L41.1728 36.159Z" fill="#F2EEE3" stroke="#DCD4C6" stroke-width="0.3"/>
<path d="M87.7565 36.159L87.7565 36.159L103.166 59.2745L103.291 59.1913L103.167 59.2745C104.096 60.669 104.593 62.3056 104.593 63.9827V85.7587C104.593 88.6636 103.107 91.3652 100.656 92.9227L88.4991 100.648L88.499 100.648C87.1405 101.512 85.5608 101.971 83.9485 101.971H66.4646H64.3441V32.3805H66.4646H80.6944C83.5323 32.3805 86.1834 33.7973 87.7565 36.159Z" fill="#DCD4C6" stroke="#DCD4C6" stroke-width="0.3"/>
<path d="M64.4648 79.8954V63.0449H57.8691C54.8765 63.0449 52.2102 64.7982 51.2222 67.4145L45.9669 81.3293C45.4348 82.7379 45.4405 84.273 45.9818 85.6782L48.9949 93.4974C49.9955 96.0933 52.6503 97.8272 55.6283 97.8272H64.4648V93.1552V79.8954Z" fill="#E1DED1"/>
<path d="M82.9618 81.3293L77.7077 67.4145C76.7185 64.7982 74.0534 63.0449 71.0607 63.0449H64.4648V79.8954V93.1554V97.8274H73.3029C76.2785 97.8274 78.9323 96.0935 79.9339 93.4976L82.9459 85.6784C83.4894 84.273 83.494 82.7379 82.9618 81.3293Z" fill="#D2CABD"/>
<path d="M65.9668 90.1098C69.6282 90.1098 72.598 87.1399 72.598 83.4777C72.598 79.8154 69.6282 76.8467 65.9668 76.8467H64.4648V90.11L65.9668 90.1098Z" fill="#3E3A39"/>
<path d="M56.3315 83.4779C56.3315 87.1401 59.2992 90.11 62.9627 90.11H64.4647V76.8467H62.9627C59.2993 76.8467 56.3315 79.8154 56.3315 83.4779Z" fill="#3E3A39"/>
<path d="M43.114 51.3847C43.6007 50.1454 44.7956 49.3301 46.1294 49.3301H53.6836C54.5966 49.3301 55.4676 49.7167 56.0828 50.392C56.6956 51.0696 56.9969 51.9748 56.9084 52.8832L55.4428 67.9713C55.3813 68.608 55.1323 69.2108 54.7275 69.7053L48.7024 77.0879C48.0872 77.8418 47.1651 78.2783 46.1931 78.2783H39.6963C38.5399 78.2783 37.4711 77.6609 36.8914 76.6592L33.9122 71.5031C33.28 70.4094 33.3426 69.0483 34.0714 68.0159L39.5051 60.3161C39.6551 60.1035 39.7791 59.8749 39.8746 59.6317L43.114 51.3847Z" fill="#231815"/>
<path d="M85.8155 51.3847C85.3288 50.1454 84.1304 49.3301 82.8002 49.3301H75.2448C74.3318 49.3301 73.461 49.7167 72.8469 50.392C72.2328 51.0696 71.9328 51.9748 72.0214 52.8832L73.487 67.9713C73.5484 68.608 73.7974 69.2108 74.2011 69.7053L80.226 77.0879C80.8412 77.8418 81.7633 78.2783 82.7367 78.2783H89.2325C90.3898 78.2783 91.4586 77.6609 92.0374 76.6592L95.0177 71.5029C95.6499 70.4092 95.5873 69.0481 94.8585 68.0157L89.4224 60.3159C89.2746 60.1033 89.1508 59.8747 89.0564 59.6315L85.8155 51.3847Z" fill="#231815"/>
<path d="M73.8917 94.2373H55.0376V96.1417H73.8917V94.2373Z" fill="#B4A895"/>
<defs>
<linearGradient id="paint0_linear_2190_7" x1="64" y1="0" x2="64" y2="128" gradientUnits="userSpaceOnUse">
<stop stop-color="white"/>
<stop offset="1" stop-color="#F2EEE3"/>
</linearGradient>
</defs>
</svg>
