<svg version="1.1" id="Layer_1" xmlns:x="ns_extend;" xmlns:i="ns_ai;" xmlns:graph="ns_graphs;" xmlns="http://www.w3.org/2000/svg" xmlns:xlink="http://www.w3.org/1999/xlink" x="0px" y="0px" viewBox="0 0 600.35 175.32" style="enable-background:new 0 0 600.35 175.32;" xml:space="preserve">
 <metadata>
  <sfw xmlns="ns_sfw;">
   <slices>
   </slices>
   <sliceSourceBounds bottomLeftOrigin="true" height="175.32" width="600.35" x="-276.15" y="38.96">
   </sliceSourceBounds>
  </sfw>
 </metadata>
 <g>
  <g>
   <path d="M91.75,0c0.34,0,0.67,0,0.99,0l1.88,0c0.3,0,0.59,0,0.87,0l1.57,0c0.24,0,0.47,0,0.69,0l1.62,0c0.14,0,0.26,0,0.37,0
			l0.49,0l0.29,0.26v2.51c0,0.69-0.39,1.04-1.16,1.04C95.59,4,94.82,4.37,93.44,6.36c-0.75,1.08-2.24,3.41-3.78,6.03L76.44,37.11
			c0,0-0.13,0.27-0.37,0.77l16.16,33.08l0.98,0.27l25.46-60.42c0.89-2.44,0.75-4.16-0.39-5.18c-1.14-0.99-1.95-1.58-4.89-1.7
			l-2.39-0.12c-0.29,0-0.57-0.11-0.84-0.31c-0.26-0.19-0.4-0.43-0.4-0.73V0.26l0.36-0.26h28.76l0.29,0.26v2.52
			c0,0.68-0.39,1.03-1.16,1.03c-3.77,0.17-6.55,0.99-8.37,2.44c-1.81,1.47-3.23,3.49-4.24,6.13c0,0-7.65,17.51-15.69,35.82
			l-1.34,3.06c-5.6,12.76-11.21,25.47-14.39,32.52c-3.07,5.85-6.1,5.3-8.73-0.17c-2.06-4.24-5.5-11.66-9-19.31l-2.34-5.12
			c-1.37-3-2.7-5.95-3.93-8.64c-5.4,11.16-12.81,26.32-16.51,33.14c-3.58,6.2-6.5,5.4-8.86,0.16c-8.15-19.21-24.86-53.03-32.71-71.8
			c-1.46-3.48-2.55-5.7-3.59-6.6c-1.04-0.88-3.2-1.4-6.49-1.58C0.6,3.73,0,3.44,0,2.96V0.33l0.29-0.26c0.63,0,1.55-0.01,2.67-0.01
			l3.92,0c0.37,0,0.74,0,1.12,0l4.85,0c0.42,0,0.84,0,1.27,0l8.67,0c0.38,0,0.76,0,1.13,0l4.75,0c0.26,0,0.5,0,0.72,0l2.17,0
			l0.29,0.26v2.51c0,0.69-0.44,1.03-1.3,1.03L27.29,4c-2.8,0.12-4.2,0.96-4.2,2.51c0,0.72,0.29,1.9,0.94,3.48
			c6.25,15.26,27.92,61.04,27.9,60.88l0.79,0.21l13.94-27.82c-1.71-3.76-2.79-6.15-2.79-6.18l-9.59-18.84c0,0-1.86-3.77-2.49-5.02
			c-4.21-8.35-4.12-8.81-8.38-9.35c-1.19-0.16-1.81-0.31-1.81-0.9V0.32l0.36-0.26l2.56,0c0.31,0,0.63,0,0.95,0l7.44,0
			c0.37,0,0.74,0,1.1,0l12.75,0l0.66,0.22V2.9c0,0.6-0.43,0.91-1.3,0.91l-1.8,0.26c-4.55,0.35-3.8,2.21-0.78,8.23l9.2,18.81
			l10.17-20.29c1.59-3.47,1.39-4.51,0.79-5.33l-0.14-0.17c-0.4-0.48-1.76-1.26-4.7-1.37l-1.16-0.13c-0.29,0-0.57-0.1-0.83-0.3
			c-0.26-0.19-0.39-0.43-0.39-0.74V0.28l0.36-0.26c1.24-0.01,2.75-0.01,4.4-0.02L91.75,0z M144.1,26.6l0.59,0
			c3.55,0,13.66-0.26,13.66-0.26l0.13,0.26v2.89c0,0.39-0.26,0.66-0.79,0.66l-2.76,0.27c-4.07,0.39-5.5,1.45-5.52,4.08v43.73
			c0,2.89,1.31,4.6,5.52,4.99l2.76,0.27c0.39,0,0.79,0.26,0.79,0.78v2.76l-0.13,0.27c0,0-9.96-0.27-14.05-0.27
			c-3.68,0-13.91,0.27-13.92,0.27l-0.26-0.27v-2.76c0-0.53,0.39-0.78,0.92-0.78l2.63-0.27c4.33-0.39,5.65-2.5,5.65-4.99V34.49
			c0-2.88-1.58-3.68-5.65-4.07l-2.63-0.27c-0.53,0-0.92-0.12-0.92-0.53V26.6l0.13-0.26C130.25,26.34,139.7,26.58,144.1,26.6
			L144.1,26.6z M188.18,78.22c0,2.89,1.71,4.33,5.52,4.99l1.44,0.27c0.39,0.13,0.79,0.26,0.79,0.78v2.76l-0.13,0.27
			c0,0-8.25-0.27-12.21-0.27c-3.68,0-14.46,0.27-14.45,0.27l-0.26-0.27v-2.76c0-0.53,0.39-0.78,0.92-0.78l2.63-0.27
			c3.94-0.39,5.65-2.5,5.65-4.99V34.49c0-2.88-1.45-3.68-5.65-4.07l-2.63-0.27c-0.53,0-0.92-0.12-0.92-0.53V26.6l0.13-0.26
			c0,0,10.76,0.26,14.84,0.26c3.68,0,11.96-0.26,11.95-0.26l0.13,0.26v2.89c0,0.39-0.26,0.53-0.79,0.66l-1.44,0.27
			c-4.07,0.78-5.5,1.45-5.52,4.08v19.84c4.33,0,6.8-2.22,12.61-8.4c5.25-5.8,9.31-10.61,9.32-13.14c0-1.06-1.18-2.23-3.81-2.63
			c-0.53-0.12-0.79-0.26-0.79-0.66v-3.03l0.13-0.12c0,0,10.66,0.26,14.45,0.26c3.41,0,9.21-0.26,9.19-0.26l0.39,0.12v3.03
			c0,0.39-0.39,0.66-1.05,0.66c-5.1,0.39-8.66,0.66-13.39,6.04l-11.29,12.99c-2.23,2.38-3.02,3.81-3.02,4.86
			c0,0.79,0.53,1.44,1.18,2.23l19.83,23.9c1.58,1.83,4.73,2.63,7.35,3.15l0.66,0.13c0.39,0.13,0.92,0.39,0.92,0.78v2.76l-0.39,0.13
			c0,0-6.95-0.13-10.64-0.13c-3.28,0-8,0.13-8.01,0.13l-0.13-0.13v-1.58c0-1.71-0.13-3.15-1.97-5.25l-14.58-18.13
			c-1.97-2.63-4.07-3.28-6.96-3.28L188.18,78.22L188.18,78.22z M258.97,78.22c0,2.89,1.31,4.6,5.52,4.99l2.76,0.27
			c0.39,0,0.79,0.26,0.79,0.78v2.76l-0.13,0.27c0,0-9.96-0.27-14.05-0.27c-3.68,0-13.91,0.27-13.92,0.27l-0.26-0.27v-2.76
			c0-0.53,0.39-0.78,0.92-0.78l2.63-0.27c4.33-0.39,5.65-2.5,5.65-4.99V34.49c0-2.88-1.58-3.68-5.65-4.07l-2.63-0.27
			c-0.53,0-0.92-0.12-0.92-0.53V26.6l0.13-0.26c0,0,10.36,0.26,14.45,0.26c3.55,0,13.66-0.26,13.66-0.26l0.13,0.26v2.89
			c0,0.39-0.26,0.66-0.79,0.66l-2.76,0.27c-4.07,0.39-5.5,1.45-5.52,4.08L258.97,78.22L258.97,78.22z M287.35,34.75
			c0-4.07-1.71-4.2-7.88-4.6c-0.79,0-0.92-0.39-0.92-0.66v-3.02l0.26-0.13c1.97,0,9.71,0.26,13.53,0.26c3.68,0,8.91-0.26,13.79-0.26
			c18.66,0,22.06,9.21,22.05,16.03c0,7.9-3.81,20.21-22.45,20.22c-3.28,0-5.9-0.27-8.28-1.31v17.59c0,2.88,1.58,3.55,5.78,4.2
			l2.63,0.39c0.53,0.13,0.93,0.27,0.92,0.78V87l-0.12,0.27c0,0-10.51-0.27-14.58-0.27c-3.68,0-13.51,0.27-13.53,0.27L278.43,87
			v-2.76c0-0.53,0.26-0.66,0.79-0.78l2.76-0.39c4.07-0.53,5.4-1.71,5.38-4.2L287.35,34.75L287.35,34.75z M297.46,57.6
			c2.63,1.06,5.9,1.18,8.54,1.18c7.9,0,11.66-4.74,11.68-14.84c0-11.31-5.1-13.81-12.33-13.79c-6.3,0-7.9,1.18-7.88,4.6L297.46,57.6
			L297.46,57.6z M350.8,87.02c-3.94,0-13.01,0.27-13,0.27l-0.14-0.27v-2.89c0-0.26,0.14-0.65,0.79-0.65l3.03-0.27
			c4.08-0.39,5.25-3.02,5.26-5.64V34.23c0-3.03-1.58-3.55-5.26-3.81l-3.03-0.27c-0.79-0.12-0.79-0.39-0.79-0.53V26.6l0.14-0.26
			c0,0,10.26,0.26,14.18,0.26h19.3c3.94,0,13.26-0.26,13.27-0.26l0.27,0.26c0.12,5.65,1.04,10.76,1.97,15.76l-3.27,0.53
			c-1.44-4.86-3.93-11.81-12.34-11.82h-10.51c-2.5,0-3.81,0.92-3.81,3.15v19.05h9.84c3.68,0,4.6-1.58,5.13-4.2l0.78-2.76
			c0-0.39,0.27-0.66,0.79-0.66h2.22c0.27,0,0.27,0.14,0.27,0.39c-0.27,2.88-0.79,6.55-0.79,9.72c0,3.28,0.53,6.05,0.79,9.06
			l-0.27,0.27h-2.22c-0.65,0-0.93-0.27-0.93-0.66l-0.66-2.88c-0.53-2.63-1.71-4.08-5.14-4.08h-9.84v20.1c0,2.49,1.43,4.98,3.81,4.98
			h12.48c6.7,0,10.41-4.2,11.95-11.04l3.27,0.39l-2.63,15.1l-0.26,0.26c0,0-7.75-0.26-11.69-0.26L350.8,87.02L350.8,87.02z
			 M400.19,83.48l3.02-0.27c3.94-0.39,5.25-1.58,5.26-5.64V34.23c0-3.43-0.93-3.43-5.26-3.81l-2.88-0.27
			c-0.53,0-0.93-0.26-0.93-0.66V26.6l0.13-0.26c0,0,11.56,0.26,13.93,0.26c2.49,0,13.91-0.26,17.33-0.26
			c21.91,0,32.72,13.66,32.7,31.12c0,22.96-16.31,29.82-30.86,29.81c-10.51,0-15.11-0.27-19.17-0.27c-3.94,0-13.91,0.27-13.93,0.27
			L399.41,87v-2.76C399.4,83.87,399.67,83.48,400.19,83.48L400.19,83.48z M429.48,83.48c14.46,0,22.61-5.35,22.59-23.77
			c0-13.66-3.03-29.57-25.09-29.55c-5.1,0-8.4,0.79-8.4,4.08v43.34C418.58,81.24,419.49,83.47,429.48,83.48L429.48,83.48z
			 M494.49,78.22c0,2.89,1.31,4.6,5.52,4.99l2.76,0.27c0.39,0,0.79,0.26,0.79,0.78v2.76l-0.13,0.27c0,0-9.96-0.27-14.05-0.27
			c-3.68,0-13.91,0.27-13.92,0.27l-0.27-0.27v-2.76c0-0.53,0.39-0.78,0.92-0.78l2.63-0.27c4.33-0.39,5.65-2.5,5.65-4.99V34.49
			c0-2.88-1.58-3.68-5.65-4.07l-2.63-0.27c-0.53,0-0.92-0.12-0.92-0.53V26.6l0.13-0.26c0,0,10.36,0.26,14.44,0.26
			c3.54,0,13.66-0.26,13.66-0.26l0.12,0.26v2.89c0,0.39-0.27,0.66-0.79,0.66l-2.76,0.27c-4.08,0.39-5.5,1.45-5.52,4.08L494.49,78.22
			L494.49,78.22z M534.95,83.21l3.81,0.27c0.53,0,1.05,0.39,1.05,1.05v2.5l-0.26,0.27c0,0-14.31-0.27-17.47-0.27
			c-3.42,0-11.81,0.27-11.82,0.27l-0.27-0.27v-2.5c0-0.65,0.39-1.05,1.06-1.05c5.8-0.39,9.06-1.45,12.73-9.85l29.15-68.3
			c1.44-3.41,2.5-4.73,4.48-4.73c1.83,0,2.49,1.32,3.54,3.94l26.92,71.18c1.85,5.1,4.47,7.1,9.73,7.62l1.44,0.13
			c0.66,0,1.32,0.39,1.32,1.06V87l-0.39,0.27c0,0-10.11-0.27-15.24-0.27c-4.6,0-17.46,0.27-17.47,0.27L567.12,87v-2.49
			c0-0.67,0.26-1.06,0.93-1.06l3.68-0.27c4.98-0.39,6.85-1.98,5.52-5.64l-8.01-22.2h-27.33c-3.15,0-3.94,0.53-4.59,2.22l-7.62,19.05
			C528.39,79.92,530.09,82.82,534.95,83.21L534.95,83.21z M567.13,49.84l-12.74-35.06h-0.26l-13.13,33.36
			c-0.53,1.33,0.39,1.71,3.28,1.71L567.13,49.84L567.13,49.84L567.13,49.84z">
   </path>
  </g>
  <g>
   <path d="M456.62,131.41c0.52,0,0.85,0.19,0.85,0.46c0,0-0.27,1.81-0.27,4.16c0,0.46,0.38,0.4,0.58,0.19
			c2.92-2.97,6.49-4.6,8.89-4.6c6.64,0,11.49,6.34,11.49,13.24c0,5.24-1.76,9.29-4.81,12.27c-2.66,2.54-5.89,3.64-9.54,3.64
			c-2.05,0-4.06-0.36-5.65-1c-0.66-0.27-0.91-0.35-0.91,0.49v7.01c0,5.39,0.71,5.64,5.31,5.92c0.39,0.38,0.39,1.76,0,2.14
			c-2.79-0.05-4.79-0.12-7.85-0.12c-2.86,0-4.54,0.07-7.27,0.12c-0.39-0.39-0.39-1.76,0-2.15c3.96-0.19,4.67-0.52,4.67-5.91v-27.73
			c0-3.7-0.71-4.09-4.23-4.42c-0.12-0.39-0.26-1.42-0.12-1.81C452.26,132.71,454.78,132.13,456.62,131.41z M370.39,132.13
			c0.39,0.39,0.39,1.76,0,2.15c-2.39,0.19-4.34,2.27-5.26,4.16c-3.44,7.29-6.29,13.98-11.49,26.49c-0.8,1.92-1.65,3.78-2.66,5.58
			c-2.33,4.17-4.94,4.68-6.29,4.68c-1.76,0-3.05-1.04-3.05-2.4c0-0.85,0.97-2.8,2.86-2.8c0.71,0,0.96,0.19,1.88,0.19
			c1.62,0,2.53-0.58,3.24-1.88c0.97-2.01,1.77-3.81,2.54-5.97c0.65-1.81-0.34-4.8-0.91-6.11l-7.36-17.08
			c-1.77-4.14-2.29-4.61-5.11-4.87c-0.39-0.39-0.39-1.76,0-2.15c1.3,0.07,3.04,0.12,5.26,0.12c2.34,0,4.93-0.06,7.34-0.12
			c0.39,0.39,0.39,1.76,0,2.15c-3.98,0.31-3.3,1.48-2.13,4.23l5.75,13.5c0.54,1.29,1.1,1.12,1.55,0.07l6.45-14.87
			c1.01-2.36-1.07-2.73-3.12-2.93c-0.39-0.39-0.39-1.76,0-2.15c2.4,0.07,3.64,0.12,5.91,0.12
			C367.6,132.25,368.78,132.19,370.39,132.13z M536.79,114.81c0.58,0,0.85,0.19,0.85,0.65c0,0-0.23,2.24-0.26,5.94l-0.01,30.29
			c0,3.19,0.58,4.42,4.74,4.74c0.39,0.39,0.39,1.36,0,1.76c-3.96,0.46-6.89,1.42-8.31,2.6c-0.49,0.15-1.01,0.15-1.49,0
			c0,0,0.07-3.19,0.07-3.84c0-0.46-0.47-0.33-0.78-0.09c-3.18,2.63-5.59,3.92-8.12,3.92c-6.99,0-11.04-5.84-11.04-13.84
			c0-4.81,1.69-8.64,4.48-11.42c2.6-2.47,5.44-3.9,9.73-3.9c2.15,0,4.81,1.11,5.06,1.11c0.46,0,0.58-0.13,0.58-0.58v-8.31
			c0-5.44-0.78-5.14-4.16-5.32c-0.39-0.38-0.52-1.42-0.39-1.95C530.36,116.37,535.16,115.46,536.79,114.81L536.79,114.81z
			 M574.04,131.65c4.74,0,9.79,1.76,9.81,10.97v9.68c0,3,0.07,5.49,2.6,5.52c1.36,0,1.64-1.04,2.02-1.04c0.25,0,0.84,0.65,0.84,1.11
			c0,0.31-2.33,2.92-5.51,2.92c-3.47,0-4.61-2.4-5-3.77h-0.12l-0.01-0.02l-1.29,1.03c-2.86,2.2-4.1,2.73-7.08,2.73
			c-4.54,0-8.19-1.88-8.19-7.01c0-4.41,4.48-7.84,10.72-9.41l5.57-1.36c0.19-0.06,0.39-0.32,0.39-0.77c0-7.34-3.04-8.44-5.27-8.44
			c-2.46,0-5.39,0.72-5.38,2.73c0,0.73,0.07,1.12,0.12,1.31c0.14,0.37,0.21,0.76,0.19,1.15c0,0.84-0.97,2.14-2.86,2.14
			c-1.49,0-2.27-0.71-2.27-2.27C563.32,135.35,568.71,131.65,574.04,131.65z M496.23,131.74c9.04,0,10.99,5.84,10.97,11.31
			c0,0.71-0.45,1.1-1.23,1.1l-17.28-0.12c0,3.77,0.77,6.74,2.08,8.89c2.01,3.31,4.74,4.68,7.08,4.68c3.77,0,5.64-1.03,8.04-3.5
			c0.78,0.05,1.17,0.39,1.36,1.03c-2.6,3.38-6.09,5.64-11.04,5.65c-4.67,0-7.74-1.56-9.93-4.16c-2.15-2.47-3.04-5.99-3.04-9.61
			C483.24,137.12,490.59,131.73,496.23,131.74z M430.9,131.62c10.09,0,13.63,7.84,13.63,14.61c0,6.49-4.09,14.53-13.76,14.54
			c-9.14,0-13.63-7.34-13.63-13.96C417.13,138.58,422.13,131.63,430.9,131.62z M184.91,131.74c9.04,0,10.99,5.84,10.97,11.31
			c0,0.71-0.45,1.1-1.23,1.1l-17.27-0.12c0,3.77,0.78,6.74,2.08,8.89c2.01,3.31,4.74,4.68,7.08,4.68c3.77,0,5.64-1.03,8.05-3.5
			c0.78,0.05,1.17,0.39,1.36,1.03c-2.6,3.38-6.09,5.64-11.04,5.65c-4.67,0-7.74-1.56-9.93-4.16c-2.14-2.47-3.05-5.99-3.05-9.61
			C171.92,137.12,179.26,131.73,184.91,131.74z M214.12,131.74c9.04,0,10.99,5.84,10.97,11.31c0,0.71-0.45,1.1-1.23,1.1l-17.27-0.12
			c0,3.77,0.78,6.74,2.08,8.89c2.01,3.31,4.74,4.68,7.08,4.68c3.77,0,5.64-1.03,8.05-3.5c0.78,0.05,1.17,0.39,1.36,1.03
			c-2.6,3.38-6.09,5.64-11.04,5.65c-4.67,0-7.74-1.56-9.93-4.16c-2.14-2.47-3.05-5.99-3.05-9.61
			C201.14,137.12,208.48,131.73,214.12,131.74z M89.22,131.74c9.04,0,10.99,5.84,10.97,11.31c0,0.71-0.45,1.1-1.23,1.1l-17.27-0.12
			c0,3.77,0.78,6.74,2.08,8.89c2.01,3.31,4.74,4.68,7.08,4.68c3.77,0,5.64-1.03,8.05-3.5c0.78,0.05,1.17,0.39,1.36,1.03
			c-2.6,3.38-6.09,5.64-11.04,5.65c-4.67,0-7.74-1.56-9.93-4.16c-2.14-2.47-3.05-5.99-3.05-9.61
			C76.24,137.12,83.58,131.73,89.22,131.74z M325.99,131.62c6.24,0,9.94,2.6,9.93,6.16c0,2.01-1.81,2.85-3.18,2.85
			s-2.26-0.58-2.47-2.34c-0.26-2.27-0.78-4.54-4.61-4.54c-4.28,0-7.39,4.28-7.4,11.43c0,7.59,3.97,12.39,8.7,12.39
			c2.8,0,5.59-1.42,7.8-4.28c0.58,0.06,1.1,0.31,1.36,0.91c-3.25,5.34-6.69,6.59-10.58,6.57c-8.19,0-12.84-5.79-12.86-14.15
			C312.67,137.38,319.56,131.64,325.99,131.62z M386.1,131.62c6.24,0,9.94,2.6,9.93,6.16c0,2.01-1.81,2.85-3.18,2.85
			c-1.35,0-2.26-0.58-2.47-2.34c-0.25-2.27-0.77-4.54-4.6-4.54c-4.29,0-7.39,4.28-7.4,11.43c0,7.59,3.96,12.39,8.7,12.39
			c2.79,0,5.59-1.42,7.8-4.28c0.58,0.06,1.1,0.31,1.35,0.91c-3.24,5.34-6.69,6.59-10.58,6.57c-8.19,0-12.84-5.79-12.85-14.15
			C372.8,137.38,379.69,131.64,386.1,131.62z M157.18,131.44c0.52,0,0.84,0.19,0.84,0.45c0,0-0.32,3.12-0.32,5.19
			c0,0.31,0.19,0.65,0.58-0.07c1.49-2.53,4.16-5.39,7.21-5.38c2.73,0,3.9,1.87,3.9,3.11c0,1.63-1.49,3.24-3.05,3.24
			c-1.36,0-2.01-1.23-2.66-1.88c-0.39-0.38-0.91-0.45-1.36-0.45c-0.78,0-2.27,2.15-2.99,3.18c-0.78,1.17-1.56,2.66-1.56,4.35v9.03
			c0,5.39,0.78,5.59,5.32,5.91c0.39,0.39,0.39,1.77,0,2.15c-2.62-0.08-5.24-0.12-7.86-0.12c-2.6,0-4.67,0.07-7.4,0.12
			c-0.39-0.38-0.39-1.76,0-2.15c4.03-0.26,4.8-0.52,4.8-5.91v-12.66c0-3.59-0.71-4.11-4.22-4.42c-0.26-0.39-0.26-1.42-0.13-1.81
			C152.77,132.74,155.38,132.16,157.18,131.44z M408.31,114.81c0.57,0,0.84,0.19,0.84,0.65c0,0-0.23,2.24-0.26,5.94l0,30.81
			c0,5.39,0.72,5.69,4.68,5.91c0.39,0.39,0.39,1.76,0,2.15c-2.8-0.07-4.42-0.12-7.21-0.12c-2.86,0-4.54,0.07-7.28,0.12
			c-0.39-0.39-0.39-1.76,0-2.15c3.96-0.19,4.68-0.52,4.68-5.91l-0.01-28.37c0-5.44-0.78-5.14-4.16-5.32
			c-0.39-0.38-0.52-1.42-0.39-1.95C401.82,116.37,406.67,115.46,408.31,114.81z M269.11,117.96c0.19,0,0.26,0.06,0.26,0.19
			c0.13,0.52,1.1,6.74,1.43,9.41c-0.66,0.33-1.41,0.44-2.14,0.32c-1.43-4.48-2.47-7.09-7.34-7.08h-6.82c-1.56,0-2.34,1.3-2.34,2.85
			v12.99h5.91c5.49,0.03,5.69-0.81,5.91-4.39c0.39-0.39,1.75-0.39,2.14,0c-0.06,1.95-0.13,3.38-0.13,5.58c0,2.2,0.06,3.44,0.13,5.72
			c-0.39,0.39-1.75,0.39-2.14,0c-0.19-2.92-0.39-4.41-5.91-4.41h-5.91v15.65c0,1.76,0.91,2.8,2.34,2.8h8.83
			c4.93,0,7.19-3.84,8.51-8.51c0.77-0.2,1.59-0.08,2.27,0.32c-0.61,3.66-1.41,7.28-2.4,10.85c0,0-4.56-0.11-7.71-0.12h-14.8
			c-1.05,0.01-5.44,0.07-8.21,0.12c-0.39-0.39-0.39-1.76,0-2.15c4.54-0.19,5.64-0.52,5.65-5.91v-26.04c0-5.39-1.1-5.74-5.65-5.92
			c-0.39-0.39-0.39-1.76,0-2.15c3.25,0.07,8.39,0.12,8.38,0.12h16.56C267.48,118.22,268,118.15,269.11,117.96z M553.61,131.42
			c0.52,0,0.84,0.19,0.84,0.46c0,0-0.25,4.16-0.25,7.39v12.95c-0.01,5.39,0.71,5.64,4.67,5.9c0.39,0.39,0.39,1.76,0,2.15
			c-2.79-0.07-4.42-0.12-7.21-0.12c-2.85,0-4.53,0.07-7.28,0.12c-0.37-0.39-0.37-1.76,0-2.15c3.96-0.32,4.68-0.52,4.68-5.91v-12.66
			c0-3.7-0.68-4.08-4.23-4.41c-0.12-0.39-0.27-1.43-0.12-1.82C549.19,132.73,551.76,132.14,553.61,131.42z M144.09,117.96
			c0.15,0,0.23,0.04,0.26,0.19c0.09,0.49,1.07,6.74,1.41,9.41l-2.01,0.32c-1.43-4.48-2.47-7.09-7.34-7.08h-6.82
			c-1.56,0-2.34,0.65-2.34,2.21v13.63h6.04c5.49,0,5.69-0.84,5.91-4.42c0.39-0.38,1.75-0.38,2.14,0c-0.06,1.95-0.13,3.38-0.13,5.59
			c0,2.19,0.06,3.44,0.13,5.71c-0.39,0.39-1.75,0.39-2.14,0c-0.19-2.92-0.39-4.41-5.91-4.41h-6.04v13.08c0,5.39,1.1,5.69,5.65,5.91
			c0.39,0.39,0.39,1.76,0,2.15c-3.25-0.07-5.14-0.12-8.38-0.12c-3.31,0-5.24,0.07-8.44,0.12c-0.39-0.39-0.39-1.76,0-2.15
			c4.54-0.19,5.64-0.52,5.65-5.91v-26.04c0-5.39-1.1-5.74-5.65-5.92c-0.39-0.39-0.39-1.76,0-2.15c3.25,0.07,8.39,0.12,8.38,0.12
			h16.58C142.58,118.22,142.95,118.18,144.09,117.96z M50.19,114.8c0.52,0,0.78,0.19,0.78,0.65c0,0-0.18,2.27-0.19,6.49l-0.04,14.94
			c0,0.91,0.41,0.24,0.63,0c3.96-4.41,7.09-5.24,10.26-5.26c2.27,0,4.3,0.78,5.39,2.2c1.51,1.98,1.75,5.14,1.75,8.7v9.68
			c0,5.29,0.71,5.59,4.35,5.91c0.32,0.39,0.32,1.76,0,2.15c-2.79-0.07-4.22-0.12-6.88-0.12c-2.6,0-3.9,0.07-6.62,0.12
			c-0.32-0.39-0.32-1.76,0-2.15c3.38-0.32,4.03-0.58,4.03-5.91v-9.88c0-1.95-0.13-3.71-0.78-5c-0.75-1.49-2.12-2.34-3.44-2.34
			c-2.56,0-5.04,1.4-7.53,3.83c-0.72,0.73-1.12,1.72-1.1,2.74v10.64c0,5.39,0.58,5.64,3.88,5.91c0.39,0.39,0.39,1.76,0,2.15
			c-2.73-0.07-3.88-0.12-6.42-0.12c-2.79,0-4.45,0.07-7.13,0.12c-0.39-0.39-0.39-1.76,0-2.15c3.77-0.26,4.53-0.52,4.53-5.91v-28.38
			c0-1.49,0-2.99-4.54-2.99h-8.25c-2.34,0-2.99,1.16-2.99,3.38v27.99c0,5.39,1.1,5.69,6.3,5.91c0.39,0.39,0.39,1.76,0,2.15
			c-3.25-0.07-5.49-0.12-9.02-0.12c-3.57,0-5.89,0.07-9.09,0.12c-0.39-0.39-0.39-1.76,0-2.15c5.19-0.19,6.29-0.52,6.3-5.91V124
			c0-2-0.65-3.18-2.99-3.18h-5.45c-3.57,0-4.41,0.77-5.71,5.96l-1.95-0.31c0.78-3.44,1.17-6.79,1.43-10l1.75,0.26
			c0,0.39,0,1.5,1.36,1.5h25.84C44.13,118.23,44.93,117.74,50.19,114.8z M286.57,131.42c0.52,0,0.78,0.19,0.78,0.52
			c0,0-0.32,3-0.32,4.93c0,0.91,0.45,0.26,0.65,0c3.96-4.4,7.09-5.24,10.26-5.25c2.27,0,4.28,0.78,5.38,2.2
			c1.5,2.01,1.76,5.14,1.76,8.7v9.68c0,5.29,0.72,5.59,4.35,5.91c0.32,0.39,0.32,1.76,0,2.15c-2.79-0.07-4.23-0.12-6.88-0.12
			c-2.6,0-3.89,0.07-6.63,0.12c-0.32-0.39-0.32-1.76,0-2.15c3.38-0.32,4.03-0.58,4.03-5.91v-9.88c0-1.95-0.13-3.7-0.78-5
			c-0.78-1.49-2.14-2.34-3.44-2.34c-2.53,0-5.04,1.42-7.53,3.83c-0.72,0.73-1.12,1.72-1.1,2.74v10.64c0,5.29,0.58,5.59,3.9,5.91
			c0.39,0.39,0.39,1.76,0,2.15c-2.73-0.07-3.9-0.12-6.43-0.12c-2.79,0-4.48,0.07-7.14,0.12c-0.39-0.39-0.39-1.76,0-2.15
			c3.9-0.32,4.54-0.58,4.54-5.91v-12.66c0-3.77-0.71-4.09-4.22-4.41c-0.13-0.39-0.26-1.43-0.13-1.82
			C282.09,132.72,284.75,132.14,286.57,131.42z M430.18,133.78c-5.44-0.01-7.44,5.89-7.46,11.55c0,4.99,2.47,13.33,9.22,13.31
			c3.05,0,6.99-1.76,7.01-10.32C438.95,138.79,435.77,133.79,430.18,133.78z M464.85,134.6c-1.89,0-4.54,1.69-6.55,3.77
			c-0.83,0.87-1.04,1.51-1.04,2.87v12.08c0,2.35,0.25,2.72,1.55,3.89c1.17,1.04,3.44,1.36,4.61,1.36c7.29,0,9.14-6.64,9.15-11.96
			C472.58,139.26,469.01,134.61,464.85,134.6z M578.82,145l-5.15,1.37c-4.79,1.27-6.14,4.23-6.16,7.15c0,2,1.42,4.61,4.68,4.61
			c1.81,0,4.04-1.43,5.72-2.8c0.52-0.39,0.91-0.84,0.91-1.69C578.82,153.64,578.82,145,578.82,145z M525.94,133.89
			c-1.3,0-4.04,0.19-6.04,3.24c-0.96,1.35-1.88,3.96-1.88,8.64c0,8.09,3.64,11.94,7.15,11.95c1.61,0,3.69-1.04,6.11-3.12
			c0.92-0.79,1.03-1.3,1.03-2.53v-12.33c0-2.01-0.19-2.46-1.1-3.5C529.9,134.74,528.28,133.89,525.94,133.89z M184.91,133.89
			c-1.56,0-6.09,0.58-7.34,7.92l11.75-0.19c0.71-0.01,0.97-0.32,0.97-0.91C190.3,135.26,187.37,133.91,184.91,133.89z M89.22,133.89
			c-1.56,0-6.09,0.58-7.34,7.92l11.75-0.19c0.71-0.01,0.97-0.32,0.97-0.91C94.61,135.26,91.69,133.91,89.22,133.89z M214.12,133.89
			c-1.56,0-6.09,0.58-7.34,7.92l11.75-0.19c0.71-0.01,0.97-0.32,0.97-0.91C219.51,135.26,216.59,133.91,214.12,133.89z
			 M496.21,133.89c-1.55,0-6.09,0.58-7.34,7.92l11.76-0.19c0.72-0.01,0.97-0.32,0.97-0.91
			C501.61,135.26,498.68,133.91,496.21,133.89z M551.66,118.12c1.76,0,3.11,1.81,3.11,3.38c0,1.36-1.56,3.12-3.38,3.12
			c-1.56,0-3.11-1.69-3.11-3.38C548.28,119.68,550.1,118.12,551.66,118.12z">
   </path>
  </g>
 </g>
</svg>